SplineFontDB: 3.2
FontName: ZbalermornaPixel
FullName: Zbalermorna Pixel
FamilyName: Zbalermorna Pixel
Weight: 
Copyright: Shankar Sivarajan
Version: 
ItalicAngle: 0
UnderlinePosition: -256
UnderlineWidth: 128
Ascent: 1408
Descent: 640
InvalidEm: 0
LayerCount: 3
Layer: 0 1 "Back" 1
Layer: 1 0 "Fore" 0
Layer: 2 0 "Back 2" 1
XUID: [1021 578 742194275 15552673]
StyleMap: 0x0040
FSType: 8
OS2Version: 4
OS2_WeightWidthSlopeOnly: 0
OS2_UseTypoMetrics: 0
CreationTime: 1358538608
ModificationTime: 1710474163
PfmFamily: 65
TTFWeight: 400
TTFWidth: 5
LineGap: 0
VLineGap: 0
Panose: 3 15 5 2 3 3 2 2 2 4
OS2TypoAscent: 1638
OS2TypoAOffset: 0
OS2TypoDescent: -598
OS2TypoDOffset: 0
OS2TypoLinegap: 0
OS2WinAscent: 2257
OS2WinAOffset: 0
OS2WinDescent: 598
OS2WinDOffset: 0
HheadAscent: 2257
HheadAOffset: 0
HheadDescent: -598
HheadDOffset: 0
OS2SubXSize: 1434
OS2SubYSize: 1331
OS2SubXOff: 0
OS2SubYOff: 293
OS2SupXSize: 1434
OS2SupYSize: 1331
OS2SupXOff: 0
OS2SupYOff: 928
OS2StrikeYSize: 174
OS2StrikeYPos: 631
OS2FamilyClass: 2568
OS2Vendor: 'LOUD'
OS2CodePages: 2000009f.00000000
OS2UnicodeRanges: 00000287.00000000.00000000.00000000
Lookup: 4 0 1 "zlmFF" { "zlmFF subtable"  } ['liga' ('latn' <'dflt' > 'DFLT' <'dflt' > ) ]
Lookup: 4 0 1 "zlmSFF" { "zlmSFF subtable"  } ['liga' ('latn' <'dflt' > 'DFLT' <'dflt' > ) ]
Lookup: 4 0 1 "zlmSF" { "zlmSF subtable"  } ['liga' ('latn' <'dflt' > 'DFLT' <'dflt' > ) ]

StartChar: seplimeabu
Encoding: 46 60848 1
Width: 768
VWidth: 1920
Flags: W
HStem: 0 640
VStem: 128 512
AnchorPoint: "Below" 384 -128 basechar 0
AnchorPoint: "Above" 384 768 basechar 0
LayerCount: 3
Fore
SplineSet
128 0 m 1
 256 0 l 1
 256 128 l 1
 256 256 l 1
 256 384 l 1
 256 512 l 1
 384 512 l 1
 512 512 l 1
 640 512 l 1
 640 640 l 1
 512 640 l 1
 384 640 l 1
 256 640 l 1
 128 640 l 1
 128 512 l 1
 128 384 l 1
 128 256 l 1
 128 128 l 1
 128 0 l 1
EndSplineSet
Ligature2: "zlmSF subtable" slakabu seplimeabu
LCarets2: 1 0
EndChar

StartChar: seplimeebu
Encoding: 47 60849 2
Width: 768
VWidth: 1920
Flags: W
HStem: 0 640
VStem: 128 512
AnchorPoint: "Below" 384 -128 basechar 0
AnchorPoint: "Above" 384 768 basechar 0
LayerCount: 3
Fore
SplineSet
128 0 m 1
 256 0 l 1
 256 128 l 1
 256 256 l 1
 384 256 l 1
 512 256 l 1
 640 256 l 1
 640 384 l 1
 512 384 l 1
 384 384 l 1
 256 384 l 1
 256 512 l 1
 256 640 l 1
 128 640 l 1
 128 512 l 1
 128 384 l 1
 128 256 l 1
 128 128 l 1
 128 0 l 1
EndSplineSet
Ligature2: "zlmSF subtable" slakabu seplimeebu
LCarets2: 1 0
EndChar

StartChar: seplimeibu
Encoding: 48 60850 3
Width: 896
VWidth: 1920
Flags: W
HStem: 0 640
VStem: 128 640
AnchorPoint: "Below" 384 -128 basechar 0
AnchorPoint: "Above" 384 768 basechar 0
LayerCount: 3
Fore
SplineSet
128 0 m 1
 256 0 l 1
 256 128 l 1
 256 256 l 1
 256 384 l 1
 256 512 l 1
 384 512 l 1
 512 512 l 1
 640 512 l 1
 640 384 l 1
 640 256 l 1
 640 128 l 1
 640 0 l 1
 768 0 l 1
 768 128 l 1
 768 256 l 1
 768 384 l 1
 768 512 l 1
 768 640 l 1
 640 640 l 1
 512 640 l 1
 384 640 l 1
 256 640 l 1
 128 640 l 1
 128 512 l 1
 128 384 l 1
 128 256 l 1
 128 128 l 1
 128 0 l 1
EndSplineSet
Ligature2: "zlmSF subtable" slakabu seplimeibu
LCarets2: 1 0
EndChar

StartChar: seplimeobu
Encoding: 49 60851 4
Width: 768
VWidth: 1920
Flags: W
HStem: 0 640
VStem: 128 512
AnchorPoint: "Below" 256 -128 basechar 0
AnchorPoint: "Above" 384 768 basechar 0
LayerCount: 3
Fore
SplineSet
128 0 m 1
 256 0 l 1
 384 0 l 1
 512 0 l 1
 640 0 l 1
 640 128 l 1
 640 256 l 1
 640 384 l 1
 640 512 l 1
 640 640 l 1
 512 640 l 1
 512 512 l 1
 512 384 l 1
 512 256 l 1
 512 128 l 1
 384 128 l 1
 256 128 l 1
 128 128 l 1
 128 0 l 1
EndSplineSet
Ligature2: "zlmSF subtable" slakabu seplimeobu
LCarets2: 1 0
EndChar

StartChar: seplimeubu
Encoding: 50 60852 5
Width: 896
VWidth: 1920
Flags: W
HStem: 0 640
VStem: 128 640
AnchorPoint: "Below" 384 -128 basechar 0
AnchorPoint: "Above" 384 768 basechar 0
LayerCount: 3
Fore
SplineSet
128 0 m 1
 256 0 l 1
 384 0 l 1
 512 0 l 1
 640 0 l 1
 768 0 l 1
 768 128 l 1
 768 256 l 1
 768 384 l 1
 768 512 l 1
 768 640 l 1
 640 640 l 1
 640 512 l 1
 640 384 l 1
 640 256 l 1
 640 128 l 1
 512 128 l 1
 384 128 l 1
 256 128 l 1
 256 256 l 1
 256 384 l 1
 256 512 l 1
 256 640 l 1
 128 640 l 1
 128 512 l 1
 128 384 l 1
 128 256 l 1
 128 128 l 1
 128 0 l 1
EndSplineSet
Ligature2: "zlmSF subtable" slakabu seplimeubu
LCarets2: 1 0
EndChar

StartChar: seplimeybu
Encoding: 51 60853 6
Width: 896
VWidth: 1920
Flags: W
HStem: 0 640
VStem: 128 640
AnchorPoint: "Below" 384 -128 basechar 0
AnchorPoint: "Above" 384 768 basechar 0
LayerCount: 3
Fore
SplineSet
128 256 m 1
 256 256 l 1
 384 256 l 1
 384 128 l 1
 384 0 l 1
 512 0 l 1
 512 128 l 1
 512 256 l 1
 640 256 l 1
 768 256 l 1
 768 384 l 1
 640 384 l 1
 512 384 l 1
 512 512 l 1
 512 640 l 1
 384 640 l 1
 384 512 l 1
 384 384 l 1
 256 384 l 1
 128 384 l 1
 128 256 l 1
EndSplineSet
Ligature2: "zlmSF subtable" slakabu seplimeybu
LCarets2: 1 0
EndChar

StartChar: seplimeaibu
Encoding: 52 60854 7
Width: 768
VWidth: 1920
Flags: W
HStem: 0 640
VStem: 128 512
AnchorPoint: "Below" 384 -128 basechar 0
AnchorPoint: "Above" 384 768 basechar 0
LayerCount: 3
Fore
SplineSet
128 0 m 1
 256 0 l 1
 384 0 l 1
 512 0 l 1
 640 0 l 1
 640 128 l 1
 512 128 l 1
 384 128 l 1
 256 128 l 1
 256 256 l 1
 256 384 l 1
 256 512 l 1
 384 512 l 1
 512 512 l 1
 640 512 l 1
 640 640 l 1
 512 640 l 1
 384 640 l 1
 256 640 l 1
 128 640 l 1
 128 512 l 1
 128 384 l 1
 128 256 l 1
 128 128 l 1
 128 0 l 1
EndSplineSet
Ligature2: "zlmSFF subtable" slakabu seplimeaibu
Ligature2: "zlmFF subtable" seplimeabu seplimeibu
LCarets2: 1 0
EndChar

StartChar: seplimeeibu
Encoding: 53 60855 8
Width: 896
VWidth: 1920
Flags: W
AnchorPoint: "Below" 384 -128 basechar 0
AnchorPoint: "Above" 384 768 basechar 0
LayerCount: 3
Fore
SplineSet
128 128 m 1
 256 128 l 1
 256 256 l 1
 128 256 l 1
 128 128 l 1
256 0 m 1
 384 0 l 1
 512 0 l 1
 512 128 l 1
 384 128 l 1
 256 128 l 1
 256 0 l 1
256 384 m 1
 384 384 l 1
 384 512 l 1
 256 512 l 1
 256 384 l 1
384 256 m 1
 512 256 l 1
 512 384 l 1
 384 384 l 1
 384 256 l 1
384 512 m 1
 512 512 l 1
 640 512 l 1
 640 640 l 1
 512 640 l 1
 384 640 l 1
 384 512 l 1
512 128 m 1
 640 128 l 1
 640 256 l 1
 512 256 l 1
 512 128 l 1
640 384 m 1
 768 384 l 1
 768 512 l 1
 640 512 l 1
 640 384 l 1
EndSplineSet
Ligature2: "zlmSFF subtable" slakabu seplimeeibu
Ligature2: "zlmFF subtable" seplimeebu seplimeibu
LCarets2: 1 0
EndChar

StartChar: seplimeoibu
Encoding: 54 60856 9
Width: 768
VWidth: 1920
Flags: W
HStem: 0 640
VStem: 128 512
AnchorPoint: "Below" 256 -128 basechar 0
AnchorPoint: "Above" 384 768 basechar 0
LayerCount: 3
Fore
SplineSet
128 0 m 1
 256 0 l 1
 384 0 l 1
 512 0 l 1
 640 0 l 1
 640 128 l 1
 640 256 l 1
 640 384 l 1
 640 512 l 1
 640 640 l 1
 512 640 l 1
 384 640 l 1
 256 640 l 1
 128 640 l 1
 128 512 l 1
 256 512 l 1
 384 512 l 1
 512 512 l 1
 512 384 l 1
 512 256 l 1
 512 128 l 1
 384 128 l 1
 256 128 l 1
 128 128 l 1
 128 0 l 1
EndSplineSet
Ligature2: "zlmSFF subtable" slakabu seplimeoibu
Ligature2: "zlmFF subtable" seplimeobu seplimeibu
LCarets2: 1 0
EndChar

StartChar: seplimeaubu
Encoding: 55 60857 10
Width: 896
VWidth: 1920
Flags: W
AnchorPoint: "Below" 384 -128 basechar 0
AnchorPoint: "Above" 384 768 basechar 0
LayerCount: 3
Fore
SplineSet
128 0 m 1
 256 0 l 1
 256 128 l 1
 128 128 l 1
 128 0 l 1
128 512 m 1
 256 512 l 1
 256 640 l 1
 128 640 l 1
 128 512 l 1
256 128 m 1
 384 128 l 1
 384 256 l 1
 256 256 l 1
 256 128 l 1
256 384 m 1
 384 384 l 1
 384 512 l 1
 256 512 l 1
 256 384 l 1
384 256 m 1
 512 256 l 1
 512 384 l 1
 384 384 l 1
 384 256 l 1
512 128 m 1
 640 128 l 1
 640 256 l 1
 512 256 l 1
 512 128 l 1
512 384 m 1
 640 384 l 1
 640 512 l 1
 512 512 l 1
 512 384 l 1
640 0 m 1
 768 0 l 1
 768 128 l 1
 640 128 l 1
 640 0 l 1
640 512 m 1
 768 512 l 1
 768 640 l 1
 640 640 l 1
 640 512 l 1
EndSplineSet
Ligature2: "zlmSFF subtable" slakabu seplimeaubu
Ligature2: "zlmFF subtable" seplimeabu seplimeubu
LCarets2: 1 0
EndChar

StartChar: denpabu
Encoding: 10 60809 11
Width: 512
VWidth: 1920
Flags: HW
HStem: 256 128
VStem: 128 128
LayerCount: 3
Fore
SplineSet
128 256 m 1
 256 256 l 1
 256 384 l 1
 128 384 l 1
 128 256 l 1
EndSplineSet
Substitution2: "Single Substitution lookup 73 subtable" denpabu.cas
EndChar

StartChar: yhy
Encoding: 11 60810 12
Width: 512
VWidth: 1920
Flags: HW
HStem: 0 640
VStem: 128 128
LayerCount: 3
Fore
SplineSet
128 0 m 1
 256 0 l 1
 256 128 l 1
 256 256 l 1
 256 384 l 1
 256 512 l 1
 256 640 l 1
 128 640 l 1
 128 512 l 1
 128 384 l 1
 128 256 l 1
 128 128 l 1
 128 0 l 1
EndSplineSet
Substitution2: "Single Substitution lookup 75 subtable" yhy.cas
Substitution2: "Single Substitution lookup 74 subtable" yhy.cas
EndChar

StartChar: py
Encoding: 1 60800 13
Width: 896
Flags: W
HStem: 0 128<256 512> 128 128<512 640> 1004 20G<128 256>
VStem: 128 128<128 1024> 512 128<128 256> 640 128<256 640>
AnchorPoint: "Below" 384 -128 basechar 0
AnchorPoint: "Above" 512 768 basechar 0
LayerCount: 3
Fore
SplineSet
128 0 m 1xb8
 128 1024 l 1
 256 1024 l 1
 256 128 l 1
 512 128 l 1
 512 0 l 1
 128 0 l 1xb8
512 128 m 1
 512 256 l 1
 640 256 l 1
 640 128 l 1x78
 512 128 l 1
640 256 m 1
 640 640 l 1
 768 640 l 1
 768 256 l 1x74
 640 256 l 1
EndSplineSet
EndChar

StartChar: ty
Encoding: 2 60801 14
Width: 896
VWidth: 1920
Flags: W
AnchorPoint: "Below" 384 -128 basechar 0
AnchorPoint: "Above" 512 768 basechar 0
LayerCount: 3
Fore
SplineSet
128 0 m 1
 256 0 l 1
 256 128 l 1
 256 256 l 1
 256 384 l 1
 384 384 l 1
 384 512 l 1
 256 512 l 1
 256 640 l 1
 256 768 l 1
 256 896 l 1
 256 1024 l 1
 128 1024 l 1
 128 896 l 1
 128 768 l 1
 128 640 l 1
 128 512 l 1
 128 384 l 1
 128 256 l 1
 128 128 l 1
 128 0 l 1
384 512 m 1
 512 512 l 1
 640 512 l 1
 640 640 l 1
 512 640 l 1
 384 640 l 1
 384 512 l 1
640 0 m 1
 768 0 l 1
 768 128 l 1
 768 256 l 1
 768 384 l 1
 768 512 l 1
 640 512 l 1
 640 384 l 1
 640 256 l 1
 640 128 l 1
 640 0 l 1
EndSplineSet
EndChar

StartChar: ky
Encoding: 3 60802 15
Width: 896
VWidth: 1920
Flags: W
AnchorPoint: "Below" 384 -128 basechar 0
AnchorPoint: "Above" 512 768 basechar 0
LayerCount: 3
Fore
SplineSet
128 0 m 1
 256 0 l 1
 256 128 l 1
 384 128 l 1
 384 256 l 1
 256 256 l 1
 256 384 l 1
 256 512 l 1
 256 640 l 1
 256 768 l 1
 256 896 l 1
 256 1024 l 1
 128 1024 l 1
 128 896 l 1
 128 768 l 1
 128 640 l 1
 128 512 l 1
 128 384 l 1
 128 256 l 1
 128 128 l 1
 128 0 l 1
384 256 m 1
 512 256 l 1
 512 384 l 1
 384 384 l 1
 384 256 l 1
512 384 m 1
 640 384 l 1
 640 256 l 1
 640 128 l 1
 640 0 l 1
 768 0 l 1
 768 128 l 1
 768 256 l 1
 768 384 l 1
 768 512 l 1
 768 640 l 1
 640 640 l 1
 640 512 l 1
 512 512 l 1
 512 384 l 1
EndSplineSet
EndChar

StartChar: vy
Encoding: 20 60819 16
Width: 768
VWidth: 1920
Flags: W
AnchorPoint: "Below" 256 -128 basechar 0
AnchorPoint: "Above" 256 768 basechar 0
LayerCount: 3
Fore
SplineSet
128 512 m 1
 256 512 l 1
 384 512 l 1
 512 512 l 1
 512 640 l 1
 384 640 l 1
 256 640 l 1
 128 640 l 1
 128 512 l 1
256 0 m 1
 384 0 l 1
 384 128 l 1
 384 256 l 1
 256 256 l 1
 256 128 l 1
 256 0 l 1
384 256 m 1
 512 256 l 1
 512 384 l 1
 384 384 l 1
 384 256 l 1
512 384 m 1
 640 384 l 1
 640 512 l 1
 512 512 l 1
 512 384 l 1
EndSplineSet
EndChar

StartChar: ly
Encoding: 5 60804 17
Width: 768
VWidth: 1920
Flags: W
AnchorPoint: "Below" 384 -128 basechar 0
AnchorPoint: "Above" 384 768 basechar 0
LayerCount: 3
Fore
SplineSet
128 128 m 1
 256 128 l 1
 256 256 l 1
 256 384 l 1
 256 512 l 1
 128 512 l 1
 128 384 l 1
 128 256 l 1
 128 128 l 1
256 0 m 1
 384 0 l 1
 512 0 l 1
 640 0 l 1
 640 128 l 1
 512 128 l 1
 384 128 l 1
 256 128 l 1
 256 0 l 1
256 512 m 1
 384 512 l 1
 512 512 l 1
 640 512 l 1
 640 640 l 1
 512 640 l 1
 384 640 l 1
 256 640 l 1
 256 512 l 1
EndSplineSet
EndChar

StartChar: sy
Encoding: 6 60805 18
Width: 896
VWidth: 1920
Flags: W
AnchorPoint: "Below" 384 -128 basechar 0
AnchorPoint: "Above" 256 768 basechar 0
LayerCount: 3
Fore
SplineSet
128 128 m 1
 256 128 l 1
 256 256 l 1
 256 384 l 1
 256 512 l 1
 128 512 l 1
 128 384 l 1
 128 256 l 1
 128 128 l 1
256 0 m 1
 384 0 l 1
 512 0 l 1
 640 0 l 1
 640 128 l 1
 512 128 l 1
 384 128 l 1
 256 128 l 1
 256 0 l 1
256 512 m 1
 384 512 l 1
 512 512 l 1
 512 640 l 1
 384 640 l 1
 256 640 l 1
 256 512 l 1
640 128 m 1
 768 128 l 1
 768 256 l 1
 768 384 l 1
 768 512 l 1
 768 640 l 1
 768 768 l 1
 768 896 l 1
 768 1024 l 1
 640 1024 l 1
 640 896 l 1
 640 768 l 1
 640 640 l 1
 640 512 l 1
 640 384 l 1
 640 256 l 1
 640 128 l 1
EndSplineSet
EndChar

StartChar: cy
Encoding: 7 60806 19
Width: 896
VWidth: 1920
Flags: W
AnchorPoint: "Below" 384 -128 basechar 0
AnchorPoint: "Above" 256 768 basechar 0
LayerCount: 3
Fore
SplineSet
128 0 m 1
 256 0 l 1
 256 128 l 1
 256 256 l 1
 256 384 l 1
 384 384 l 1
 384 512 l 1
 256 512 l 1
 256 640 l 1
 128 640 l 1
 128 512 l 1
 128 384 l 1
 128 256 l 1
 128 128 l 1
 128 0 l 1
384 512 m 1
 512 512 l 1
 640 512 l 1
 640 384 l 1
 640 256 l 1
 640 128 l 1
 640 0 l 1
 768 0 l 1
 768 128 l 1
 768 256 l 1
 768 384 l 1
 768 512 l 1
 768 640 l 1
 768 768 l 1
 768 896 l 1
 768 1024 l 1
 640 1024 l 1
 640 896 l 1
 640 768 l 1
 640 640 l 1
 512 640 l 1
 384 640 l 1
 384 512 l 1
EndSplineSet
EndChar

StartChar: my
Encoding: 8 60807 20
Width: 896
VWidth: 1920
Flags: W
AnchorPoint: "Below" 384 -128 basechar 0
AnchorPoint: "Above" 384 768 basechar 0
LayerCount: 3
Fore
SplineSet
128 384 m 1
 256 384 l 1
 256 512 l 1
 128 512 l 1
 128 384 l 1
256 0 m 1
 384 0 l 1
 512 0 l 1
 640 0 l 1
 768 0 l 1
 768 128 l 1
 640 128 l 1
 512 128 l 1
 384 128 l 1
 384 256 l 1
 256 256 l 1
 256 128 l 1
 256 0 l 1
256 512 m 1
 384 512 l 1
 512 512 l 1
 512 640 l 1
 384 640 l 1
 256 640 l 1
 256 512 l 1
384 256 m 1
 512 256 l 1
 512 384 l 1
 384 384 l 1
 384 256 l 1
512 384 m 1
 640 384 l 1
 640 512 l 1
 512 512 l 1
 512 384 l 1
EndSplineSet
EndChar

StartChar: xy
Encoding: 9 60808 21
Width: 896
VWidth: 1920
Flags: W
AnchorPoint: "Below" 384 -128 basechar 0
AnchorPoint: "Above" 384 768 basechar 0
LayerCount: 3
Fore
SplineSet
128 128 m 1
 256 128 l 1
 256 256 l 1
 256 384 l 1
 256 512 l 1
 128 512 l 1
 128 384 l 1
 128 256 l 1
 128 128 l 1
256 0 m 1
 384 0 l 1
 512 0 l 1
 640 0 l 1
 640 128 l 1
 512 128 l 1
 384 128 l 1
 256 128 l 1
 256 0 l 1
256 512 m 1
 384 512 l 1
 512 512 l 1
 640 512 l 1
 640 640 l 1
 512 640 l 1
 384 640 l 1
 256 640 l 1
 256 512 l 1
640 128 m 1
 768 128 l 1
 768 256 l 1
 768 384 l 1
 768 512 l 1
 640 512 l 1
 640 384 l 1
 640 256 l 1
 640 128 l 1
EndSplineSet
EndChar

StartChar: by
Encoding: 17 60816 22
Width: 896
VWidth: 1920
Flags: W
AnchorPoint: "Below" 256 -128 basechar 0
AnchorPoint: "Above" 384 768 basechar 0
LayerCount: 3
Fore
SplineSet
128 0 m 1
 256 0 l 1
 256 128 l 1
 256 256 l 1
 256 384 l 1
 128 384 l 1
 128 256 l 1
 128 128 l 1
 128 0 l 1
256 384 m 1
 384 384 l 1
 384 512 l 1
 256 512 l 1
 256 384 l 1
384 512 m 1
 512 512 l 1
 640 512 l 1
 640 384 l 1
 640 256 l 1
 640 128 l 1
 640 0 l 1
 640 -128 l 1
 640 -257 l 1
 640 -384 l 1
 768 -384 l 1
 768 -257 l 1
 768 -128 l 1
 768 0 l 1
 768 128 l 1
 768 256 l 1
 768 384 l 1
 768 512 l 1
 768 640 l 1
 640 640 l 1
 512 640 l 1
 384 640 l 1
 384 512 l 1
EndSplineSet
EndChar

StartChar: dy
Encoding: 18 60817 23
Width: 896
VWidth: 1920
Flags: W
AnchorPoint: "Below" 256 -128 basechar 0
AnchorPoint: "Above" 384 768 basechar 0
LayerCount: 3
Fore
SplineSet
128 128 m 1
 256 128 l 1
 256 256 l 1
 256 384 l 1
 256 512 l 1
 256 640 l 1
 128 640 l 1
 128 512 l 1
 128 384 l 1
 128 256 l 1
 128 128 l 1
256 0 m 1
 384 0 l 1
 512 0 l 1
 512 128 l 1
 384 128 l 1
 256 128 l 1
 256 0 l 1
512 128 m 1
 640 128 l 1
 640 0 l 1
 640 -128 l 1
 640 -257 l 1
 640 -384 l 1
 768 -384 l 1
 768 -257 l 1
 768 -128 l 1
 768 0 l 1
 768 128 l 1
 768 256 l 1
 768 384 l 1
 768 512 l 1
 768 640 l 1
 640 640 l 1
 640 512 l 1
 640 384 l 1
 640 256 l 1
 512 256 l 1
 512 128 l 1
EndSplineSet
EndChar

StartChar: gy
Encoding: 19 60818 24
Width: 896
VWidth: 1920
Flags: W
AnchorPoint: "Below" 256 -128 basechar 0
AnchorPoint: "Above" 384 768 basechar 0
LayerCount: 3
Fore
SplineSet
128 0 m 1
 256 0 l 1
 256 128 l 1
 384 128 l 1
 384 256 l 1
 256 256 l 1
 256 384 l 1
 256 512 l 1
 256 640 l 1
 128 640 l 1
 128 512 l 1
 128 384 l 1
 128 256 l 1
 128 128 l 1
 128 0 l 1
384 256 m 1
 512 256 l 1
 512 384 l 1
 384 384 l 1
 384 256 l 1
512 384 m 1
 640 384 l 1
 640 256 l 1
 640 128 l 1
 640 0 l 1
 640 -128 l 1
 640 -257 l 1
 640 -384 l 1
 768 -384 l 1
 768 -257 l 1
 768 -128 l 1
 768 0 l 1
 768 128 l 1
 768 256 l 1
 768 384 l 1
 768 512 l 1
 768 640 l 1
 640 640 l 1
 640 512 l 1
 512 512 l 1
 512 384 l 1
EndSplineSet
EndChar

StartChar: fy
Encoding: 4 60803 25
Width: 768
VWidth: 1920
Flags: W
AnchorPoint: "Below" 384 -128 basechar 0
AnchorPoint: "Above" 384 768 basechar 0
LayerCount: 3
Fore
SplineSet
128 128 m 1
 256 128 l 1
 256 256 l 1
 128 256 l 1
 128 128 l 1
256 0 m 1
 384 0 l 1
 512 0 l 1
 640 0 l 1
 640 128 l 1
 512 128 l 1
 384 128 l 1
 256 128 l 1
 256 0 l 1
256 256 m 1
 384 256 l 1
 384 384 l 1
 256 384 l 1
 256 256 l 1
384 384 m 1
 512 384 l 1
 512 512 l 1
 512 640 l 1
 384 640 l 1
 384 512 l 1
 384 384 l 1
EndSplineSet
EndChar

StartChar: ry
Encoding: 21 60820 26
Width: 768
VWidth: 1920
Flags: W
AnchorPoint: "Below" 256 -128 basechar 0
AnchorPoint: "Above" 256 768 basechar 0
LayerCount: 3
Fore
SplineSet
128 0 m 1
 256 0 l 1
 384 0 l 1
 512 0 l 1
 512 128 l 1
 384 128 l 1
 256 128 l 1
 128 128 l 1
 128 0 l 1
128 512 m 1
 256 512 l 1
 384 512 l 1
 512 512 l 1
 512 640 l 1
 384 640 l 1
 256 640 l 1
 128 640 l 1
 128 512 l 1
512 128 m 1
 640 128 l 1
 640 256 l 1
 640 384 l 1
 640 512 l 1
 512 512 l 1
 512 384 l 1
 512 256 l 1
 512 128 l 1
EndSplineSet
EndChar

StartChar: zy
Encoding: 22 60821 27
Width: 896
VWidth: 1920
Flags: W
AnchorPoint: "Below" 512 -128 basechar 0
AnchorPoint: "Above" 384 768 basechar 0
LayerCount: 3
Back
SplineSet
260.715820312 808 m 1,0,1
 314 888 314 888 400.875976562 870 c 0,2,3
 507 848 507 848 557 772 c 0,4,5
 601 704 601 704 599 559 c 0,6,7
 596.795898438 466.458007812 596.795898438 466.458007812 512 321 c 0,8,9
 458 234 458 234 374 207 c 0,10,11
 372 207 372 207 240.954101562 183 c 1,12,-1
 260.715820312 808 l 1,0,1
40.732421875 -471 m 2,16,17
 40.603515625 -476.828125 40.603515625 -476.828125 40.8359375 -482.31640625 c 0,18,19
 34.7939453125 -498.040039062 34.7939453125 -498.040039062 34.3837890625 -518.524414062 c 0,20,21
 31.603515625 -609.90625 31.603515625 -609.90625 181.782226562 -606.961914062 c 0,22,23
 300.337890625 -602.75 300.337890625 -602.75 412.490234375 -430.087890625 c 1,24,-1
 235.866210938 -433.452148438 l 1,25,-1
 237.040039062 -53 l 1,26,-1
 237.045898438 -51 l 2,27,28
 239 -52 239 -52 239 -53 c 1,29,30
 239 -40 239 -40 400.477539062 0 c 0,31,32
 523 30 523 30 634.038085938 178 c 0,33,34
 777 368 777 368 776 592 c 0,35,36
 776 810 776 810 674 934 c 0,37,38
 570 1061 570 1061 405.998046875 1062 c 0,39,40
 102 1061 102 1061 72.4384765625 889.688476562 c 1,41,-1
 40.732421875 -471 l 2,16,17
239 -53 m 2,52,-1
 237.040039062 -53 l 1,53,-1
 237.045898438 -51 l 2,54,55
 239 -52 239 -52 239 -53 c 2,52,-1
EndSplineSet
Fore
SplineSet
128 -384 m 1
 256 -384 l 1
 256 -257 l 1
 256 -128 l 1
 256 0 l 1
 256 128 l 1
 256 256 l 1
 256 384 l 1
 256 512 l 1
 128 512 l 1
 128 384 l 1
 128 256 l 1
 128 128 l 1
 128 0 l 1
 128 -128 l 1
 128 -257 l 1
 128 -384 l 1
256 512 m 1
 384 512 l 1
 512 512 l 1
 640 512 l 1
 640 640 l 1
 512 640 l 1
 384 640 l 1
 256 640 l 1
 256 512 l 1
384 0 m 1
 512 0 l 1
 640 0 l 1
 640 128 l 1
 512 128 l 1
 384 128 l 1
 384 0 l 1
640 128 m 1
 768 128 l 1
 768 256 l 1
 768 384 l 1
 768 512 l 1
 640 512 l 1
 640 384 l 1
 640 256 l 1
 640 128 l 1
EndSplineSet
EndChar

StartChar: jy
Encoding: 23 60822 28
Width: 896
VWidth: 1920
Flags: W
AnchorPoint: "Below" 512 -128 basechar 0
AnchorPoint: "Above" 384 768 basechar 0
LayerCount: 3
Fore
SplineSet
128 -384 m 1
 256 -384 l 1
 256 -257 l 1
 256 -128 l 1
 256 0 l 1
 384 0 l 1
 512 0 l 1
 512 128 l 1
 384 128 l 1
 256 128 l 1
 256 256 l 1
 256 384 l 1
 256 512 l 1
 256 640 l 1
 128 640 l 1
 128 512 l 1
 128 384 l 1
 128 256 l 1
 128 128 l 1
 128 0 l 1
 128 -128 l 1
 128 -257 l 1
 128 -384 l 1
512 128 m 1
 640 128 l 1
 640 0 l 1
 768 0 l 1
 768 128 l 1
 768 256 l 1
 768 384 l 1
 768 512 l 1
 768 640 l 1
 640 640 l 1
 640 512 l 1
 640 384 l 1
 640 256 l 1
 512 256 l 1
 512 128 l 1
EndSplineSet
EndChar

StartChar: ny
Encoding: 24 60823 29
Width: 896
VWidth: 1920
Flags: W
AnchorPoint: "Below" 384 -128 basechar 0
AnchorPoint: "Above" 384 768 basechar 0
LayerCount: 3
Fore
SplineSet
128 512 m 1
 256 512 l 1
 384 512 l 1
 512 512 l 1
 512 384 l 1
 640 384 l 1
 640 512 l 1
 640 640 l 1
 512 640 l 1
 384 640 l 1
 256 640 l 1
 128 640 l 1
 128 512 l 1
256 128 m 1
 384 128 l 1
 384 256 l 1
 256 256 l 1
 256 128 l 1
384 0 m 1
 512 0 l 1
 640 0 l 1
 640 128 l 1
 512 128 l 1
 384 128 l 1
 384 0 l 1
384 256 m 1
 512 256 l 1
 512 384 l 1
 384 384 l 1
 384 256 l 1
640 128 m 1
 768 128 l 1
 768 256 l 1
 640 256 l 1
 640 128 l 1
EndSplineSet
EndChar

StartChar: bahebu
Encoding: 25 60824 30
Width: 0
VWidth: 1920
GlyphClass: 4
Flags: W
HStem: -255 127
VStem: -384 128
AnchorPoint: "Below" -384 -128 mark 0
LayerCount: 3
Fore
SplineSet
-384 -255 m 1
 -256 -255 l 1
 -256 -128 l 1
 -384 -128 l 1
 -384 -255 l 1
EndSplineSet
EndChar

StartChar: iy
Encoding: 43 60842 31
Width: 896
VWidth: 1920
Flags: W
AnchorPoint: "Below" 384 -128 basechar 0
AnchorPoint: "Above" 384 768 basechar 0
LayerCount: 3
Fore
SplineSet
128 0 m 1
 256 0 l 1
 256 128 l 1
 256 256 l 1
 128 256 l 1
 128 128 l 1
 128 0 l 1
256 256 m 1
 384 256 l 1
 384 384 l 1
 384 512 l 1
 256 512 l 1
 256 384 l 1
 256 256 l 1
384 512 m 1
 512 512 l 1
 512 640 l 1
 384 640 l 1
 384 512 l 1
512 256 m 1
 640 256 l 1
 640 384 l 1
 640 512 l 1
 512 512 l 1
 512 384 l 1
 512 256 l 1
640 0 m 1
 768 0 l 1
 768 128 l 1
 768 256 l 1
 640 256 l 1
 640 128 l 1
 640 0 l 1
EndSplineSet
EndChar

StartChar: uy
Encoding: 44 60843 32
Width: 896
VWidth: 1920
Flags: W
AnchorPoint: "Below" 384 -128 basechar 0
AnchorPoint: "Above" 384 768 basechar 0
LayerCount: 3
Fore
SplineSet
128 384 m 1
 256 384 l 1
 256 512 l 1
 256 640 l 1
 128 640 l 1
 128 512 l 1
 128 384 l 1
256 128 m 1
 384 128 l 1
 384 256 l 1
 384 384 l 1
 256 384 l 1
 256 256 l 1
 256 128 l 1
384 0 m 1
 512 0 l 1
 512 128 l 1
 384 128 l 1
 384 0 l 1
512 128 m 1
 640 128 l 1
 640 256 l 1
 640 384 l 1
 512 384 l 1
 512 256 l 1
 512 128 l 1
640 384 m 1
 768 384 l 1
 768 512 l 1
 768 640 l 1
 640 640 l 1
 640 512 l 1
 640 384 l 1
EndSplineSet
EndChar

StartChar: abu
Encoding: 33 60832 33
Width: 0
VWidth: 1920
GlyphClass: 4
Flags: W
HStem: 768 384
VStem: -384 128
AnchorPoint: "Above" -384 768 mark 0
LayerCount: 3
Fore
SplineSet
-384 768 m 1
 -256 768 l 1
 -256 896 l 1
 -256 1024 l 1
 -256 1152 l 1
 -384 1152 l 1
 -384 1024 l 1
 -384 896 l 1
 -384 768 l 1
EndSplineSet
MultipleSubs2: "Multiple Substitution lookup 62 subtable" denpabu abu
EndChar

StartChar: ebu
Encoding: 34 60833 34
Width: 0
VWidth: 1920
GlyphClass: 4
Flags: W
HStem: 768 128
VStem: -512 384
AnchorPoint: "Above" -384 768 mark 0
LayerCount: 3
Fore
SplineSet
-512 768 m 1
 -384 768 l 1
 -256 768 l 1
 -128 768 l 1
 -128 896 l 1
 -256 896 l 1
 -384 896 l 1
 -512 896 l 1
 -512 768 l 1
EndSplineSet
MultipleSubs2: "Multiple Substitution lookup 63 subtable" denpabu ebu
EndChar

StartChar: ibu
Encoding: 35 60834 35
Width: 0
VWidth: 1920
GlyphClass: 4
Flags: W
HStem: 768 128
VStem: -384 128
AnchorPoint: "Above" -384 768 mark 0
LayerCount: 3
Fore
SplineSet
-384 768 m 1
 -256 768 l 1
 -256 896 l 1
 -384 896 l 1
 -384 768 l 1
EndSplineSet
MultipleSubs2: "Multiple Substitution lookup 64 subtable" denpabu ibu
Substitution2: "Single Substitution lookup 33 subtable" iy
Substitution2: "Single Substitution lookup 32 subtable" iy
Substitution2: "Single Substitution lookup 31 subtable" iy
Substitution2: "Single Substitution lookup 30 subtable" iy
Substitution2: "Single Substitution lookup 29 subtable" iy
Substitution2: "Single Substitution lookup 28 subtable" iy
Substitution2: "Single Substitution lookup 27 subtable" iy
Substitution2: "Single Substitution lookup 26 subtable" iy
Substitution2: "Single Substitution lookup 25 subtable" iy
Substitution2: "Single Substitution lookup 24 subtable" iy
Substitution2: "Single Substitution lookup 13 subtable" iy
Substitution2: "Single Substitution lookup 12 subtable" iy
Substitution2: "Single Substitution lookup 11 subtable" iy
Substitution2: "Single Substitution lookup 10 subtable" iy
Substitution2: "Single Substitution lookup 9 subtable" iy
Substitution2: "Single Substitution lookup 8 subtable" iy
Substitution2: "Single Substitution lookup 7 subtable" iy
Substitution2: "Single Substitution lookup 6 subtable" iy
Substitution2: "Single Substitution lookup 5 subtable" iy
Substitution2: "Single Substitution lookup 4 subtable" iy
EndChar

StartChar: obu
Encoding: 36 60835 36
Width: 0
VWidth: 1920
GlyphClass: 4
Flags: HW
HStem: 768 256
AnchorPoint: "Above" -384 768 mark 0
LayerCount: 3
Fore
SplineSet
-512 768 m 1
 -384 768 l 1
 -384 896 l 1
 -256 896 l 1
 -256 1024 l 1
 -384 1024 l 1
 -512 1024 l 1
 -512 896 l 1
 -512 768 l 1
-256 768 m 1
 -128 768 l 1
 0 768 l 1
 0 896 l 1
 0 1024 l 1
 -128 1024 l 1
 -128 896 l 1
 -256 896 l 1
 -256 768 l 1
EndSplineSet
Substitution2: "Single Substitution lookup 82 subtable" obu_shift
Substitution2: "Single Substitution lookup 81 subtable" obu_shift
Substitution2: "Single Substitution lookup 80 subtable" obu_shift
Substitution2: "Single Substitution lookup 79 subtable" obu_shift
Substitution2: "Single Substitution lookup 78 subtable" obu_shift
Substitution2: "Single Substitution lookup 77 subtable" obu_shift
MultipleSubs2: "Multiple Substitution lookup 65 subtable" denpabu obu
EndChar

StartChar: ubu
Encoding: 37 60836 37
Width: 0
VWidth: 1920
GlyphClass: 4
Flags: W
HStem: 768 256
VStem: -512 384
AnchorPoint: "Above" -384 768 mark 0
LayerCount: 3
Fore
SplineSet
-512 768 m 1
 -384 768 l 1
 -256 768 l 1
 -128 768 l 1
 -128 896 l 1
 -128 1024 l 1
 -256 1024 l 1
 -256 896 l 1
 -384 896 l 1
 -384 1024 l 1
 -512 1024 l 1
 -512 896 l 1
 -512 768 l 1
EndSplineSet
MultipleSubs2: "Multiple Substitution lookup 66 subtable" denpabu ubu
Substitution2: "Single Substitution lookup 43 subtable" uy
Substitution2: "Single Substitution lookup 42 subtable" uy
Substitution2: "Single Substitution lookup 41 subtable" uy
Substitution2: "Single Substitution lookup 40 subtable" uy
Substitution2: "Single Substitution lookup 39 subtable" uy
Substitution2: "Single Substitution lookup 38 subtable" uy
Substitution2: "Single Substitution lookup 37 subtable" uy
Substitution2: "Single Substitution lookup 36 subtable" uy
Substitution2: "Single Substitution lookup 35 subtable" uy
Substitution2: "Single Substitution lookup 34 subtable" uy
Substitution2: "Single Substitution lookup 23 subtable" uy
Substitution2: "Single Substitution lookup 22 subtable" uy
Substitution2: "Single Substitution lookup 21 subtable" uy
Substitution2: "Single Substitution lookup 20 subtable" uy
Substitution2: "Single Substitution lookup 19 subtable" uy
Substitution2: "Single Substitution lookup 18 subtable" uy
Substitution2: "Single Substitution lookup 17 subtable" uy
Substitution2: "Single Substitution lookup 16 subtable" uy
Substitution2: "Single Substitution lookup 15 subtable" uy
Substitution2: "Single Substitution lookup 14 subtable" uy
EndChar

StartChar: ybu
Encoding: 38 60837 38
Width: 0
VWidth: 1920
GlyphClass: 4
Flags: W
HStem: 768 384 1004 20G<-384 -256>
VStem: -512 384
AnchorPoint: "Above" -384 768 mark 0
LayerCount: 3
Fore
SplineSet
-512 768 m 1xa0
 -384 768 l 1
 -256 768 l 1
 -128 768 l 1xa0
 -128 896 l 1
 -128 1024 l 1x60
 -128 1152 l 1
 -256 1152 l 1
 -384 1152 l 1
 -512 1152 l 1xa0
 -512 1024 l 1x60
 -512 896 l 1
 -512 768 l 1xa0
-384 896 m 1
 -384 1024 l 1
 -256 1024 l 1x60
 -256 896 l 1
 -384 896 l 1
EndSplineSet
MultipleSubs2: "Multiple Substitution lookup 67 subtable" denpabu ybu
EndChar

StartChar: aibu
Encoding: 39 60838 39
Width: 0
VWidth: 1920
GlyphClass: 4
Flags: W
VStem: -384 256
AnchorPoint: "Above" -384 768 mark 0
LayerCount: 3
Fore
SplineSet
-384 768 m 1
 -256 768 l 1
 -128 768 l 1
 -128 896 l 1
 -128 1024 l 1
 -256 1024 l 1
 -256 896 l 1
 -384 896 l 1
 -384 768 l 1
-384 1024 m 1
 -256 1024 l 1
 -256 1152 l 1
 -128 1152 l 1
 -128 1280 l 1
 -256 1280 l 1
 -384 1280 l 1
 -384 1152 l 1
 -384 1024 l 1
EndSplineSet
MultipleSubs2: "Multiple Substitution lookup 68 subtable" denpabu aibu
Ligature2: "zlmVV subtable" abu ibu
LCarets2: 1 -512
EndChar

StartChar: eibu
Encoding: 40 60839 40
Width: 0
VWidth: 1920
GlyphClass: 4
Flags: W
HStem: 768 256
VStem: -512 384
AnchorPoint: "Above" -384 768 mark 0
LayerCount: 3
Fore
SplineSet
-512 768 m 1
 -384 768 l 1
 -384 896 l 1
 -256 896 l 1
 -256 768 l 1
 -128 768 l 1
 -128 896 l 1
 -128 1024 l 1
 -256 1024 l 1
 -384 1024 l 1
 -512 1024 l 1
 -512 896 l 1
 -512 768 l 1
EndSplineSet
MultipleSubs2: "Multiple Substitution lookup 69 subtable" denpabu eibu
Ligature2: "zlmVV subtable" ebu ibu
LCarets2: 1 -512
EndChar

StartChar: oibu
Encoding: 41 60840 41
Width: 0
VWidth: 1920
GlyphClass: 4
Flags: W
VStem: -512 384
AnchorPoint: "Above" -384 768 mark 0
LayerCount: 3
Fore
SplineSet
-512 768 m 1
 -384 768 l 1
 -256 768 l 1
 -128 768 l 1
 -128 896 l 1
 -256 896 l 1
 -384 896 l 1
 -384 1024 l 1
 -512 1024 l 1
 -512 896 l 1
 -512 768 l 1
-384 1024 m 1
 -256 1024 l 1
 -256 1152 l 1
 -384 1152 l 1
 -384 1024 l 1
EndSplineSet
MultipleSubs2: "Multiple Substitution lookup 70 subtable" denpabu oibu
Ligature2: "zlmVV subtable" obu ibu
LCarets2: 1 -512
EndChar

StartChar: aubu
Encoding: 42 60841 42
Width: 0
VWidth: 1920
GlyphClass: 4
Flags: W
VStem: -384 256
AnchorPoint: "Above" -384 768 mark 0
LayerCount: 3
Fore
SplineSet
-384 768 m 1
 -256 768 l 1
 -256 896 l 1
 -384 896 l 1
 -384 768 l 1
-384 1024 m 1
 -256 1024 l 1
 -256 896 l 1
 -128 896 l 1
 -128 1024 l 1
 -128 1152 l 1
 -256 1152 l 1
 -384 1152 l 1
 -384 1024 l 1
EndSplineSet
MultipleSubs2: "Multiple Substitution lookup 71 subtable" denpabu aubu
Ligature2: "zlmVV subtable" abu ubu
LCarets2: 1 -512
EndChar

StartChar: cnimahobu
Encoding: 12 60811 43
Width: 768
VWidth: 1920
Flags: HW
LayerCount: 3
Fore
SplineSet
128 256 m 1
 256 256 l 1
 384 256 l 1
 384 384 l 1
 256 384 l 1
 128 384 l 1
 128 256 l 1
384 384 m 1
 512 384 l 1
 512 256 l 1
 512 128 l 1
 512 0 l 1
 640 0 l 1
 640 128 l 1
 640 256 l 1
 640 384 l 1
 640 512 l 1
 640 640 l 1
 512 640 l 1
 512 512 l 1
 384 512 l 1
 384 384 l 1
EndSplineSet
EndChar

StartChar: abu.dot
Encoding: 58 -1 44
Width: 512
VWidth: 1920
Flags: HW
LayerCount: 3
Fore
SplineSet
128 768 m 1
 256 768 l 1
 256 896 l 1
 256 1024 l 1
 256 1152 l 1
 128 1152 l 1
 128 1024 l 1
 128 896 l 1
 128 768 l 1
128 256 m 1
 256 256 l 1
 256 384 l 1
 128 384 l 1
 128 256 l 1
EndSplineSet
EndChar

StartChar: ebu.dot
Encoding: 59 -1 45
Width: 512
VWidth: 1920
Flags: HW
LayerCount: 3
Fore
SplineSet
128 256 m 1
 256 256 l 1
 256 384 l 1
 128 384 l 1
 128 256 l 1
0 768 m 1
 128 768 l 1
 256 768 l 1
 384 768 l 1
 384 896 l 1
 256 896 l 1
 128 896 l 1
 0 896 l 1
 0 768 l 1
EndSplineSet
EndChar

StartChar: ibu.dot
Encoding: 60 -1 46
Width: 512
VWidth: 1920
Flags: HW
LayerCount: 3
Fore
SplineSet
128 256 m 1
 256 256 l 1
 256 384 l 1
 128 384 l 1
 128 256 l 1
128 768 m 1
 256 768 l 1
 256 896 l 1
 128 896 l 1
 128 768 l 1
EndSplineSet
EndChar

StartChar: obu.dot
Encoding: 61 -1 47
Width: 512
VWidth: 1920
Flags: HW
CounterMasks: 1 e0
LayerCount: 3
Fore
SplineSet
128 256 m 1
 256 256 l 1
 256 384 l 1
 128 384 l 1
 128 256 l 1
0 768 m 1
 128 768 l 1
 128 896 l 1
 256 896 l 1
 256 1024 l 1
 128 1024 l 1
 0 1024 l 1
 0 896 l 1
 0 768 l 1
256 768 m 1
 384 768 l 1
 512 768 l 1
 512 896 l 1
 512 1024 l 1
 384 1024 l 1
 384 896 l 1
 256 896 l 1
 256 768 l 1
EndSplineSet
EndChar

StartChar: ubu.dot
Encoding: 62 -1 48
Width: 512
VWidth: 1920
Flags: HW
LayerCount: 3
Fore
SplineSet
128 256 m 5
 256 256 l 5
 256 384 l 5
 128 384 l 5
 128 256 l 5
0 768 m 1
 128 768 l 1
 256 768 l 1
 384 768 l 1
 384 896 l 1
 384 1024 l 1
 256 1024 l 1
 256 896 l 1
 128 896 l 1
 128 1024 l 1
 0 1024 l 1
 0 896 l 1
 0 768 l 1
EndSplineSet
EndChar

StartChar: ybu.dot
Encoding: 63 -1 49
Width: 512
VWidth: 1920
Flags: HW
LayerCount: 3
Fore
SplineSet
128 256 m 5
 256 256 l 5
 256 384 l 5
 128 384 l 5
 128 256 l 5
0 768 m 1
 128 768 l 1
 256 768 l 1
 384 768 l 1
 384 896 l 1
 384 1024 l 1
 384 1152 l 1
 256 1152 l 1
 128 1152 l 1
 0 1152 l 1
 0 1024 l 1
 0 896 l 1
 0 768 l 1
128 896 m 1
 128 1024 l 1
 256 1024 l 1
 256 896 l 1
 128 896 l 1
EndSplineSet
EndChar

StartChar: aibu.dot
Encoding: 64 -1 50
Width: 512
VWidth: 1920
Flags: HW
LayerCount: 3
Fore
SplineSet
128 256 m 1
 256 256 l 1
 256 384 l 1
 128 384 l 1
 128 256 l 1
128 768 m 1
 256 768 l 1
 384 768 l 1
 384 896 l 1
 384 1024 l 1
 256 1024 l 1
 256 896 l 1
 128 896 l 1
 128 768 l 1
128 1024 m 1
 256 1024 l 1
 256 1152 l 1
 384 1152 l 1
 384 1280 l 1
 256 1280 l 1
 128 1280 l 1
 128 1152 l 1
 128 1024 l 1
EndSplineSet
EndChar

StartChar: eibu.dot
Encoding: 65 -1 51
Width: 512
VWidth: 1920
Flags: HW
LayerCount: 3
Fore
SplineSet
128 256 m 1
 256 256 l 1
 256 384 l 1
 128 384 l 1
 128 256 l 1
0 768 m 1
 128 768 l 1
 128 896 l 1
 256 896 l 1
 256 768 l 1
 384 768 l 1
 384 896 l 1
 384 1024 l 1
 256 1024 l 1
 128 1024 l 1
 0 1024 l 1
 0 896 l 1
 0 768 l 1
EndSplineSet
EndChar

StartChar: oibu.dot
Encoding: 66 -1 52
Width: 512
VWidth: 1920
Flags: HW
LayerCount: 3
Fore
SplineSet
128 256 m 5
 256 256 l 5
 256 384 l 5
 128 384 l 5
 128 256 l 5
0 768 m 1
 128 768 l 1
 256 768 l 1
 384 768 l 1
 384 896 l 1
 256 896 l 1
 128 896 l 1
 128 1024 l 1
 0 1024 l 1
 0 896 l 1
 0 768 l 1
128 1024 m 1
 256 1024 l 1
 256 1152 l 1
 128 1152 l 1
 128 1024 l 1
EndSplineSet
EndChar

StartChar: aubu.dot
Encoding: 67 -1 53
Width: 512
VWidth: 1920
Flags: HW
LayerCount: 3
Fore
SplineSet
128 256 m 5
 256 256 l 5
 256 384 l 5
 128 384 l 5
 128 256 l 5
128 768 m 1
 256 768 l 1
 256 896 l 1
 128 896 l 1
 128 768 l 1
128 1024 m 1
 256 1024 l 1
 256 896 l 1
 384 896 l 1
 384 1024 l 1
 384 1152 l 1
 256 1152 l 1
 128 1152 l 1
 128 1024 l 1
EndSplineSet
EndChar

StartChar: denpabu.cas
Encoding: 32 -1 54
Width: 384
VWidth: 1920
Flags: HW
LayerCount: 3
Fore
SplineSet
513 511 m 1
 641 511 l 1
 641 639 l 1
 513 639 l 1
 513 511 l 1
384 384 m 1
 513 384 l 1
 513 511 l 1
 384 511 l 1
 384 384 l 1
256 256 m 1
 384 256 l 1
 384 384 l 1
 256 384 l 1
 256 256 l 1
128 256 m 1
 256 256 l 1
 256 384 l 1
 128 384 l 1
 128 256 l 1
EndSplineSet
EndChar

StartChar: bahebu_bahebu
Encoding: 56 -1 56
Width: 0
VWidth: 1920
Flags: W
HStem: -255 127
AnchorPoint: "Below" -384 -128 mark 0
LayerCount: 3
Fore
SplineSet
-513 -255 m 1
 -384 -255 l 1
 -384 -128 l 1
 -513 -128 l 1
 -513 -255 l 1
-256 -255 m 1
 -128 -255 l 1
 -128 -128 l 1
 -256 -128 l 1
 -256 -255 l 1
EndSplineSet
Ligature2: "zlmBahebu subtable" bahebu bahebu
LCarets2: 1 0
EndChar

StartChar: bahebu_bahebu_bahebu
Encoding: 57 -1 57
Width: 1
VWidth: 1920
Flags: W
AnchorPoint: "Below" -384 -128 mark 0
LayerCount: 3
Fore
SplineSet
-384 -510 m 1
 -256 -510 l 1
 -256 -383 l 1
 -384 -383 l 1
 -384 -510 l 1
-513 -255 m 1
 -384 -255 l 1
 -384 -128 l 1
 -513 -128 l 1
 -513 -255 l 1
-256 -255 m 1
 -128 -255 l 1
 -128 -128 l 1
 -256 -128 l 1
 -256 -255 l 1
EndSplineSet
Ligature2: "zlmBahebu subtable" bahebu bahebu bahebu
LCarets2: 2 0 0
EndChar

StartChar: smajibu
Encoding: 26 60825 58
Width: 512
VWidth: 1920
Flags: HW
LayerCount: 3
Fore
SplineSet
0 255 m 1
 128 255 l 1
 256 255 l 1
 384 255 l 1
 384 383 l 1
 256 383 l 1
 128 383 l 1
 0 383 l 1
 0 255 l 1
EndSplineSet
Substitution2: "Single Substitution lookup 60 subtable" smajibu.fina
Substitution2: "Single Substitution lookup 59 subtable" smajibu.fina
Substitution2: "Single Substitution lookup 58 subtable" smajibu.fina
Substitution2: "Single Substitution lookup 56 subtable" smajibu.medi
Substitution2: "Single Substitution lookup 55 subtable" smajibu.medi
Substitution2: "Single Substitution lookup 54 subtable" smajibu.medi
Substitution2: "Single Substitution lookup 53 subtable" smajibu.medi
Substitution2: "Single Substitution lookup 52 subtable" smajibu.medi
Substitution2: "Single Substitution lookup 51 subtable" smajibu.medi
Substitution2: "Single Substitution lookup 49 subtable" smajibu.init
Substitution2: "Single Substitution lookup 48 subtable" smajibu.init
Substitution2: "Single Substitution lookup 47 subtable" smajibu.init
EndChar

StartChar: smajibu.init
Encoding: 29 -1 59
Width: 256
VWidth: 1920
Flags: HW
LayerCount: 3
Fore
SplineSet
0 255 m 1
 128 255 l 1
 256 255 l 1
 384 255 l 1
 384 383 l 1
 256 383 l 1
 128 383 l 1
 0 383 l 1
 0 255 l 1
EndSplineSet
EndChar

StartChar: smajibu.medi
Encoding: 30 -1 60
Width: 640
VWidth: 1920
Flags: HW
LayerCount: 3
Fore
SplineSet
128 255 m 1
 256 255 l 1
 384 255 l 1
 512 255 l 1
 512 383 l 1
 384 383 l 1
 256 383 l 1
 128 383 l 1
 128 255 l 1
EndSplineSet
EndChar

StartChar: smajibu.fina
Encoding: 31 -1 61
Width: 256
VWidth: 1920
Flags: HW
LayerCount: 3
Fore
SplineSet
-127 255 m 1
 0 255 l 1
 129 255 l 1
 256 255 l 1
 256 383 l 1
 129 383 l 1
 0 383 l 1
 -127 383 l 1
 -127 255 l 1
EndSplineSet
EndChar

StartChar: patonga
Encoding: 13 60812 62
Width: 0
VWidth: 1920
Flags: W
AnchorPoint: "Below" -384 -128 mark 0
LayerCount: 3
Fore
SplineSet
-384 -383 m 1
 -255 -383 l 1
 -255 -255 l 1
 -384 -255 l 1
 -384 -383 l 1
-255 -255 m 1
 -127 -255 l 1
 -127 -128 l 1
 -255 -128 l 1
 -255 -255 l 1
EndSplineSet
EndChar

StartChar: retonga
Encoding: 14 60813 63
Width: 0
VWidth: 1920
Flags: W
AnchorPoint: "Below" -384 -128 mark 0
LayerCount: 3
Fore
SplineSet
-256 -383 m 1
 -128 -383 l 1
 -128 -255 l 1
 -256 -255 l 1
 -256 -383 l 1
-384 -255 m 1
 -256 -255 l 1
 -256 -128 l 1
 -384 -128 l 1
 -384 -255 l 1
EndSplineSet
EndChar

StartChar: citonga
Encoding: 15 60814 64
Width: 0
VWidth: 1920
Flags: W
AnchorPoint: "Below" -384 -128 mark 0
LayerCount: 3
Fore
SplineSet
-513 -383 m 1
 -384 -383 l 1
 -384 -255 l 1
 -513 -255 l 1
 -513 -383 l 1
-256 -383 m 1
 -128 -383 l 1
 -128 -255 l 1
 -256 -255 l 1
 -256 -383 l 1
-384 -255 m 1
 -256 -255 l 1
 -256 -128 l 1
 -384 -128 l 1
 -384 -255 l 1
EndSplineSet
EndChar

StartChar: votonga
Encoding: 16 60815 65
Width: 0
VWidth: 1920
Flags: W
AnchorPoint: "Below" -384 -128 mark 0
LayerCount: 3
Fore
SplineSet
-514 -255 m 1
 -385 -255 l 1
 -385 -128 l 1
 -514 -128 l 1
 -514 -255 l 1
-385 -383 m 1
 -257 -383 l 1
 -257 -255 l 1
 -385 -255 l 1
 -385 -383 l 1
-257 -255 m 1
 -128 -255 l 1
 -128 -128 l 1
 -257 -128 l 1
 -257 -255 l 1
EndSplineSet
EndChar

StartChar: tcenabu
Encoding: 28 60827 66
Width: 512
VWidth: 1920
Flags: HW
LayerCount: 3
Fore
SplineSet
0 -255 m 1
 128 -255 l 1
 256 -255 l 1
 384 -255 l 1
 384 -128 l 1
 256 -128 l 1
 128 -128 l 1
 0 -128 l 1
 0 -255 l 1
EndSplineSet
EndChar

StartChar: yhy.cas
Encoding: 45 -1 67
Width: 512
VWidth: 1920
Flags: W
HStem: 0 640
VStem: 128 128
LayerCount: 3
Fore
SplineSet
128 0 m 1
 256 0 l 1
 256 128 l 1
 256 256 l 1
 256 384 l 1
 256 512 l 1
 256 640 l 1
 128 640 l 1
 128 512 l 1
 128 384 l 1
 128 256 l 1
 128 128 l 1
 128 0 l 1
EndSplineSet
EndChar

StartChar: fy_extended
Encoding: 68 -1 68
Width: 768
VWidth: 1920
Flags: HW
AnchorPoint: "Below" 384 -128 basechar 0
LayerCount: 3
Fore
SplineSet
128 128 m 1
 256 128 l 1
 256 256 l 1
 128 256 l 1
 128 128 l 1
256 0 m 1
 384 0 l 1
 512 0 l 1
 640 0 l 1
 640 128 l 1
 512 128 l 1
 384 128 l 1
 256 128 l 1
 256 0 l 1
256 256 m 1
 384 256 l 1
 384 384 l 1
 256 384 l 1
 256 256 l 1
384 384 m 1
 512 384 l 1
 512 512 l 1
 512 1024 l 1
 384 1024 l 1
 384 512 l 1
 384 384 l 1
EndSplineSet
EndChar

StartChar: vy_extended
Encoding: 69 -1 69
Width: 768
VWidth: 1920
Flags: W
AnchorPoint: "Above" 256 768 basechar 0
LayerCount: 3
Fore
SplineSet
128 512 m 1
 256 512 l 1
 384 512 l 1
 512 512 l 1
 512 640 l 1
 384 640 l 1
 256 640 l 1
 128 640 l 1
 128 512 l 1
256 -384 m 1
 384 -384 l 1
 384 128 l 1
 384 256 l 1
 256 256 l 1
 256 128 l 1
 256 -384 l 1
384 256 m 1
 512 256 l 1
 512 384 l 1
 384 384 l 1
 384 256 l 1
512 384 m 1
 640 384 l 1
 640 512 l 1
 512 512 l 1
 512 384 l 1
EndSplineSet
EndChar

StartChar: obu_shift
Encoding: 70 -1 70
Width: 0
VWidth: 1920
Flags: HW
HStem: 768 256
AnchorPoint: "Above" -384 768 mark 0
LayerCount: 3
Fore
SplineSet
-640 768 m 1
 -512 768 l 1
 -512 896 l 1
 -384 896 l 1
 -384 1024 l 1
 -512 1024 l 1
 -640 1024 l 1
 -640 896 l 1
 -640 768 l 1
-384 768 m 1
 -256 768 l 1
 -128 768 l 1
 -128 896 l 1
 -128 1024 l 1
 -256 1024 l 1
 -256 896 l 1
 -384 896 l 1
 -384 768 l 1
EndSplineSet
EndChar
